<svg xmlns="http://www.w3.org/2000/svg" viewBox="0 0 351.28 351.28" style="enable-background:new 0 0 351.28 351.28" xml:space="preserve"><path style="fill:#db2b19" d="M167.12 346.07C76.84 341.63 5 267.02 5 175.64 5 85.8 74.42 12.19 162.53 5.5c2.92 4.1 4.6 8.71 4.6 14.01 0 40.9-100 40.9-100 81.8s100 40.9 100 81.8-100 40.9-100 81.8c0 40.69 98.97 40.9 99.99 81.16z"/><path style="fill:#f24125" d="M167.12 346.07c-1.02-40.26-99.99-40.47-99.99-81.16 0-40.9 100-40.9 100-81.8s-100-40.9-100-81.8 100-40.9 100-81.8c0-5.3-1.68-9.91-4.6-14.01 4.33-.33 8.7-.5 13.11-.5 38.41 0 73.85 12.69 102.37 34.1-26.97 11.2-56.51 21.35-56.51 43.58 0 40.9 100 40.9 100 81.8s-100 40.9-100 81.8c0 27.11 43.93 36.25 73.56 51.24-30.77 30.16-72.93 48.76-119.42 48.76-2.86 0-5.7-.07-8.52-.21z"/><path style="fill:#fc7365" d="M221.5 82.68c0-22.23 29.54-32.38 56.51-43.58 41.45 31.13 68.27 80.7 68.27 136.54 0 47.75-19.61 90.91-51.22 121.88-29.63-14.99-73.56-24.13-73.56-51.24 0-40.9 100-40.9 100-81.8s-100-40.9-100-81.8z"/><path style="fill:#333" d="M271.502 210.382a5.001 5.001 0 0 1-1.895-9.629c22.762-9.31 46.298-18.936 46.298-36.272 0-17.101-22.638-26.415-46.604-36.276-25.958-10.68-52.8-21.724-52.8-45.524 0-23.808 27-34.853 53.111-45.533 2.165-.886 4.331-1.772 6.48-2.665a4.998 4.998 0 0 1 6.535 2.7 4.999 4.999 0 0 1-2.699 6.535c-2.166.899-4.349 1.792-6.53 2.685-24.118 9.865-46.897 19.183-46.897 36.278 0 17.101 22.638 26.415 46.604 36.276 25.958 10.68 52.8 21.725 52.8 45.524 0 24.051-27.898 35.461-52.513 45.528a4.991 4.991 0 0 1-1.89.373zM249.688 219.855a5 5 0 0 1-2.203-9.491 211.978 211.978 0 0 1 8.108-3.743 5 5 0 1 1 4.018 9.157 202.644 202.644 0 0 0-7.728 3.567 4.987 4.987 0 0 1-2.195.51zM295.056 302.521a4.968 4.968 0 0 1-2.253-.54c-7.098-3.591-15.279-6.936-23.19-10.172-26.111-10.678-53.112-21.72-53.112-45.53 0-10.976 5.852-20.288 17.889-28.47a5 5 0 0 1 5.621 8.27c-9.217 6.265-13.51 12.684-13.51 20.2 0 17.095 22.78 26.411 46.897 36.274 8.094 3.31 16.464 6.733 23.919 10.505a5.001 5.001 0 0 1-2.261 9.463zM167.118 351.07a5 5 0 0 1-4.996-4.873c-.424-16.759-24.041-26.417-46.879-35.757-20.848-8.526-42.405-17.342-50.132-32.84a5 5 0 0 1 8.95-4.462c6.048 12.129 25.833 20.221 44.968 28.046 25.811 10.556 52.5 21.47 53.091 44.76a5 5 0 0 1-4.872 5.125l-.13.001zM68.254 262.702a5 5 0 0 1-4.756-6.545c5.843-18.003 29.176-27.546 51.74-36.775 24.115-9.863 46.893-19.179 46.893-36.272 0-9.376-6.647-17.082-21.553-24.987a5 5 0 1 1 4.685-8.835c11.534 6.116 26.869 16.277 26.869 33.821 0 23.807-26.998 34.849-53.107 45.528-20.453 8.365-41.603 17.016-46.014 30.606a5.006 5.006 0 0 1-4.757 3.459zM126.917 151.261c-.65 0-1.311-.127-1.947-.397-3.207-1.358-6.47-2.692-9.733-4.027-26.109-10.678-53.107-21.72-53.107-45.527s26.998-34.849 53.107-45.528c24.115-9.863 46.893-19.179 46.893-36.272 0-4.006-1.201-7.64-3.672-11.11a5 5 0 0 1 8.145-5.801c3.667 5.15 5.527 10.839 5.527 16.91 0 23.807-26.998 34.849-53.107 45.528-24.115 9.864-46.893 19.18-46.893 36.273s22.778 26.409 46.893 36.272c3.301 1.35 6.602 2.7 9.846 4.073a5 5 0 0 1-1.952 9.606z"/><path style="opacity:.25;enable-background:new" d="M190.247 336.994c-19.96-7.05-38.22-17.72-53.98-31.21-36.59-31.3-59.78-77.8-59.78-129.72 0-46.04 18.24-87.83 47.88-118.52 16.33-16.91 36.12-30.46 58.23-39.5a169.69 169.69 0 0 1 28.788-8.857 171.254 171.254 0 0 0-35.745-3.763c-22.84 0-44.62 4.49-64.53 12.62-22.11 9.04-41.9 22.59-58.23 39.5C23.24 88.234 5 130.024 5 176.064c0 51.92 23.19 98.42 59.78 129.72 15.76 13.49 34.02 24.16 53.98 31.21 17.79 6.29 36.94 9.71 56.88 9.71 12.255 0 24.208-1.3 35.734-3.756a169.305 169.305 0 0 1-21.127-5.954z"/><path style="fill:#fff" d="M250.337 52.602a4.983 4.983 0 0 1-2.649-.763 145.772 145.772 0 0 0-18.472-9.799 5 5 0 0 1 4.037-9.148 155.86 155.86 0 0 1 19.743 10.473 5 5 0 0 1-2.659 9.237zM273.434 290.345a5 5 0 0 1-3.417-8.651c29.935-28.007 46.421-65.771 46.421-106.334 0-39.62-16.668-78.14-45.73-105.684a5 5 0 0 1 6.879-7.259c31.046 29.423 48.852 70.589 48.852 112.942 0 43.361-17.611 83.718-49.589 113.636a4.984 4.984 0 0 1-3.416 1.35zM252.403 306.807a5 5 0 0 1-2.727-9.194 146.643 146.643 0 0 0 7.524-5.226 5 5 0 0 1 5.959 8.03 156.684 156.684 0 0 1-8.038 5.584 4.984 4.984 0 0 1-2.718.806z"/><path style="fill:#333" d="M175.64 351.28c-2.927 0-5.876-.073-8.766-.216C73.3 346.462 0 269.407 0 175.64c0-44.566 16.714-87.062 47.064-119.658C77.255 23.556 118.128 3.857 162.152.514 166.631.173 171.17 0 175.64 0c38.345 0 74.781 12.138 105.372 35.101 21.339 16.026 39.019 37.025 51.129 60.728 12.699 24.855 19.139 51.708 19.139 79.811 0 47.59-18.724 92.143-52.721 125.451-33.017 32.365-76.672 50.189-122.919 50.189zm0-341.28c-4.218 0-8.501.163-12.73.486-41.512 3.152-80.054 21.729-108.527 52.311C25.762 93.536 10 133.611 10 175.64c0 88.428 69.123 161.096 157.366 165.436h.002c2.727.135 5.509.204 8.272.204 43.613 0 84.781-16.809 115.92-47.331 32.063-31.413 49.72-73.429 49.72-118.309 0-26.506-6.07-51.828-18.043-75.261-11.423-22.356-28.1-42.163-48.229-57.281C246.164 21.445 211.802 10 175.64 10z"/></svg>