<svg xmlns="http://www.w3.org/2000/svg" viewBox="0 0 25 25"><defs><style>.cls-1{fill:#231f20}</style></defs><g id="calendar_star" data-name="calendar star"><path class="cls-1" d="M22.5 3H21V2a1 1 0 0 0-1-1h-1a1 1 0 0 0-1 1v1h-4V2a1 1 0 0 0-1-1h-1a1 1 0 0 0-1 1v1H7V2a1 1 0 0 0-1-1H5a1 1 0 0 0-1 1v1H2.5A1.5 1.5 0 0 0 1 4.5v18A1.5 1.5 0 0 0 2.5 24h20a1.5 1.5 0 0 0 1.5-1.5v-18A1.5 1.5 0 0 0 22.5 3zM19 2h1v3h-1zm-7 0h1v3h-1zM5 2h1v3H5zM2.5 4H4v1a1 1 0 0 0 1 1h1a1 1 0 0 0 1-1V4h4v1a1 1 0 0 0 1 1h1a1 1 0 0 0 1-1V4h4v1a1 1 0 0 0 1 1h1a1 1 0 0 0 1-1V4h1.5a.5.5 0 0 1 .5.5V8H2V4.5a.5.5 0 0 1 .5-.5zm20 19h-20a.5.5 0 0 1-.5-.5V9h21v13.5a.5.5 0 0 1-.5.5z"/><path class="cls-1" d="m18.3 14.14-3.7-.54-1.66-3.34a.5.5 0 0 0-.45-.28.51.51 0 0 0-.45.28l-1.64 3.35-3.7.54a.5.5 0 0 0-.4.34.53.53 0 0 0 .12.52l2.68 2.6-.62 3.68a.49.49 0 0 0 .2.49.51.51 0 0 0 .29.1.46.46 0 0 0 .23-.06l3.31-1.74 3.31 1.73a.5.5 0 0 0 .72-.53l-.63-3.68 2.67-2.6a.5.5 0 0 0 .12-.51.47.47 0 0 0-.4-.35zM15 17.07a.48.48 0 0 0-.14.44l.5 2.94-2.64-1.38a.49.49 0 0 0-.47 0l-2.62 1.39.5-2.94a.48.48 0 0 0-.14-.44L7.85 15l3-.44a.51.51 0 0 0 .38-.27l1.32-2.68 1.32 2.67a.52.52 0 0 0 .38.28l2.95.42z"/></g></svg>