<svg xmlns="http://www.w3.org/2000/svg" viewBox="0 0 25 25"><defs><style>.cls-1{fill:#231f20}</style></defs><g id="_24_hour_3" data-name="24 hour 3"><path class="cls-1" d="M23.82 10.44a.51.51 0 0 0-.59-.41.5.5 0 0 0-.4.58A10.89 10.89 0 0 1 23 12.5a.5.5 0 0 0 1 0 11.77 11.77 0 0 0-.18-2.06zM17.45 21.76a11.33 11.33 0 0 1-1.23.56.5.5 0 0 0 .18 1 .57.57 0 0 0 .18 0 10.85 10.85 0 0 0 1.34-.62.49.49 0 0 0 .2-.67.49.49 0 0 0-.67-.27zM20.75 19a10 10 0 0 1-1 1.07.5.5 0 0 0 .35.86.49.49 0 0 0 .35-.14 10.66 10.66 0 0 0 1.06-1.17.5.5 0 1 0-.78-.62zM23.22 15a.5.5 0 0 0-.62.34 10 10 0 0 1-.5 1.39.49.49 0 0 0 .25.66.48.48 0 0 0 .2 0 .5.5 0 0 0 .46-.3 10.51 10.51 0 0 0 .55-1.51.5.5 0 0 0-.34-.58zM22.5 8h.07a.5.5 0 0 0 .2-.08h.05a.8.8 0 0 0 .18-.25l1-3a.5.5 0 1 0-1-.33l-.65 1.93A11.71 11.71 0 0 0 12.5 1a11.5 11.5 0 0 0 0 23 12.62 12.62 0 0 0 1.38-.08.51.51 0 0 0 .44-.56.49.49 0 0 0-.56-.43c-.41 0-.84.07-1.26.07a10.5 10.5 0 0 1 0-21 10.64 10.64 0 0 1 9.12 5H19.5a.47.47 0 0 0-.5.5.5.5 0 0 0 .5.5h3z"/><path class="cls-1" d="M10 11.5c-.22.22-.51.49-.88.8l-2.36 2.32a1 1 0 0 0-.22.26.52.52 0 0 0-.06.22v.35a.27.27 0 0 0 .26.26h4.82a.26.26 0 0 0 .19-.08.21.21 0 0 0 .07-.18V15a.21.21 0 0 0-.07-.18.29.29 0 0 0-.19-.07H8.15l2.1-2.13a7 7 0 0 0 .77-.77 2.9 2.9 0 0 0 .47-.78 2.26 2.26 0 0 0 .17-.88 2.46 2.46 0 0 0-.26-1.12 2 2 0 0 0-.82-.83 2.85 2.85 0 0 0-1.42-.31 2.75 2.75 0 0 0-1.11.21 2.24 2.24 0 0 0-.79.55 2.3 2.3 0 0 0-.49.76 2.53 2.53 0 0 0-.18.84.21.21 0 0 0 .07.15.23.23 0 0 0 .16.06h.57a.32.32 0 0 0 .17-.06.27.27 0 0 0 .12-.19 2 2 0 0 1 .24-.71 1.22 1.22 0 0 1 .49-.49 1.49 1.49 0 0 1 .75-.18 1.35 1.35 0 0 1 1 .37 1.33 1.33 0 0 1 .35 1 1.55 1.55 0 0 1-.13.63 2.41 2.41 0 0 1-.38.63zM18.43 12.93h-1V8.3a.24.24 0 0 0-.07-.18.23.23 0 0 0-.18-.07h-.78a.46.46 0 0 0-.4.18l-3.28 4.63a.65.65 0 0 0-.09.19.5.5 0 0 0 0 .14v.44a.24.24 0 0 0 .07.18.29.29 0 0 0 .18.07h3.54v1.57a.25.25 0 0 0 .07.18.26.26 0 0 0 .19.08h.54a.23.23 0 0 0 .18-.08.21.21 0 0 0 .07-.18v-1.57h1a.29.29 0 0 0 .18-.07.24.24 0 0 0 .07-.18v-.45a.23.23 0 0 0-.07-.18.25.25 0 0 0-.22-.07zm-2 0h-2.66L16.4 9.2z"/></g></svg>